# xmcd
#
# Track frame offsets:
#	225
#	12309
#	23492
#	38773
#	54676
#	66768
#	80871
#	104265
#	113229
#	126374
#	137162
#	153031
#	164236
#	173221
#	189865
#	205722
#	217554
#	261666
#	272297
#	282497
#	295710
#	313572
#
# Disc length: 4342 seconds
#
# Revision: 2
# Processed by: cddbd v1.5.2PL0 Copyright (c) Steve Scherf et al.
# Submitted via: audiograbber 1.83.01
#
DISCID=3c10f316
DTITLE=Various Artist - Porta 3 1971-1972
DYEAR=1900
DGENRE=
TTITLE0=Zlodeji koni-Karabina
TTITLE1=Pisen na cestu-Havrani
TTITLE2=Modlitba-Tulaci
TTITLE3=Telegraf-Poutnici
TTITLE4=Pane Boze,od ty lasky zachran nas-Island
TTITLE5=Velrybarska vyprava-Pacifik
TTITLE6=Tonka-Plizak
TTITLE7=Mavej-Plizak
TTITLE8=Slajfka pro stesti-Island
TTITLE9=Trubadur-Prazsti trubaduri
TTITLE10=Oskliva holka-Hraci
TTITLE11=Oranzovy expres-Kantori
TTITLE12=Ja jsem cvok-Riders
TTITLE13=Roznovske hodiny-Volupsije
TTITLE14=Donna Maria-Letavice
TTITLE15=Vypravej mi jak je v horach-Sepie
TTITLE16=Tatranska svita-Plavci
TTITLE17=Lidskej ton-Stopa
TTITLE18=Slapaci mlyn-Plizak
TTITLE19=Klic ke stesti-Termiti
TTITLE20=Pani pirati-Bizoni
TTITLE21=Dal,dal,dal-Pacifik
EXTD=
EXTT0=
EXTT1=
EXTT2=
EXTT3=
EXTT4=
EXTT5=
EXTT6=
EXTT7=
EXTT8=
EXTT9=
EXTT10=
EXTT11=
EXTT12=
EXTT13=
EXTT14=
EXTT15=
EXTT16=
EXTT17=
EXTT18=
EXTT19=
EXTT20=
EXTT21=
PLAYORDER=
